<svg id="Layer_1" data-name="Layer 1" xmlns="http://www.w3.org/2000/svg" width="513.8" height="200" viewBox="0 0 513.8 200"><defs><style>.cls-1{fill:#ed1b2d;}</style></defs><title>QPark</title><path d="M186.1,86.3c9.5,0,14.1-3.9,14.1-12.1s-4.8-11.8-15.1-11.8H180V86.3ZM180,130.7H164.9V48.4h22.6c10.1,0,15.5,1.7,20.4,6.3s7.9,12,7.9,19.5c0,16.6-9.4,26-26.1,26H180Z"/><path d="M245.5,70.7l-11.2,29.6h22Zm-16.1,42.6-7,17.4h-16l33.5-84h11.4l32.5,84H267.6L261,113.3Z"/><path d="M306.6,86.3c9.6,0,14.7-4.4,14.7-12.7s-5.1-12.2-14.5-12.2h-4.6V86.3Zm37,44.4H325L304.1,97.6h-2v33.1H287.1V48.4h22.4c17.4,0,27.4,8.9,27.4,24.3,0,12.6-6.3,20.9-17.6,23.3Z"/><polygon points="391.4 48.4 410.5 48.4 377.8 86.4 412.2 130.7 392.4 130.7 364.9 93.7 363 95.7 363 130.7 348 130.7 348 48.4 363 48.4 363 83.2 391.4 48.4"/><polygon class="cls-1" points="369.5 144 314 200 358.1 200 414.1 144 369.5 144"/><polygon class="cls-1" points="458.2 144 414.1 144 469.6 87.8 513.8 87.8 458.2 144"/><path d="M109.5,132.9l10.8,11h44.2L131.9,111a71.8,71.8,0,1,0-22.5,21.9m-.6-45.2H64.7l35.1,35.5a58.1,58.1,0,1,1,22.3-22.1Z"/></svg>